<svg width="5939" height="1056" viewBox="0 0 5939 1056" fill="none" xmlns="http://www.w3.org/2000/svg">
<path d="M1705.21 6.52902C1602.82 21.8871 1506.02 71.2193 1428.76 148.475C1361.28 215.493 1313.81 300.66 1292.86 391.413C1278.9 449.587 1277.97 568.729 1291 627.369C1327.3 795.843 1462.73 946.632 1624.23 999.222C1676.82 1016.44 1716.38 1022.49 1782 1022.96C1861.58 1023.89 1901.6 1018.3 1963.5 997.36C2021.21 978.279 2060.3 957.801 2107.77 922.431C2260.42 807.943 2338.61 630.162 2314.88 450.984C2288.81 249.932 2154.78 91.2314 1954.66 23.2834C1919.29 11.183 1832.26 -0.451922 1782.46 0.013475C1763.38 0.478872 1728.48 3.27124 1705.21 6.52902ZM1854.6 134.979C1933.25 145.683 1999.8 177.795 2060.3 234.108C2120.81 290.421 2157.11 355.577 2173.4 435.625C2185.03 495.196 2185.03 532.894 2172.93 591.999C2143.61 735.807 2036.57 847.968 1891.83 886.596C1842.03 900.092 1737.32 899.161 1687.52 884.734C1609.33 862.395 1538.59 813.994 1488.33 748.838C1438.53 684.148 1410.14 599.445 1410.14 513.812C1410.14 376.055 1478.56 253.655 1596.3 181.053C1661.92 140.564 1763.85 122.413 1854.6 134.979Z" fill="#1D49A7"/>
<path d="M5846.8 13.5094L5757.44 15.8364L5642.49 155.456C5579.19 232.246 5504.26 322.999 5476.34 356.507C5448.88 390.481 5424.22 419.336 5422.82 420.267C5420.96 421.663 5409.79 410.493 5397.69 396.066C5351.61 338.822 5243.64 206.184 5166.39 112.174L5085.87 13.5094H4993.26H4900.64L4969.06 98.2117C5006.76 145.217 5101.23 262.497 5178.49 359.765L5319.5 535.685L5302.28 557.559C5292.97 569.194 5262.72 606.426 5235.27 639.469C5207.81 672.978 5162.66 728.825 5135.2 763.265C5107.28 798.17 5043.99 875.891 4995.12 936.393C4945.79 996.894 4905.3 1048.55 4905.3 1051.35C4905.3 1054.14 4937.88 1056 4997.45 1056H5089.6L5163.59 964.316C5204.55 914.054 5259 847.036 5285.06 815.855C5311.13 784.673 5350.68 735.806 5373.02 707.417C5395.83 679.028 5415.37 655.758 5416.77 656.223C5418.17 656.223 5491.23 746.045 5579.19 856.344L5738.83 1056H5832.37C5907.76 1056 5924.98 1054.6 5923.12 1049.95C5919.86 1041.57 5828.65 927.55 5664.36 727.895C5637.37 694.851 5591.29 638.538 5562.91 602.703L5510.32 538.012L5530.79 514.277C5541.5 501.246 5579.66 454.706 5615.03 411.424C5650.4 367.677 5704.85 300.66 5736.5 262.497C5943.6 9.32083 5940.34 13.5094 5938.02 12.1132C5937.08 11.6478 5896.13 12.1132 5846.8 13.5094Z" fill="#05162B"/>
<path d="M3.25778 16.7671C1.39619 18.1633 0 245.743 0 521.723V1023.42H69.8096H139.619V585.948V148.475H302.508H465.397V585.948V1023.42H532.88H600.363V585.948V148.475L755.34 149.405L909.852 150.802L911.248 586.879L912.179 1023.42H981.989H1051.8L1050.87 519.396L1049.47 15.8363L527.761 14.4401C241.076 13.9747 4.65397 14.9055 3.25778 16.7671Z" fill="#05162B"/>
<path d="M3727.83 86.5785V157.784H4190.9H4653.97V86.5785V15.8381H4190.9H3727.83V86.5785Z" fill="#05162B"/>
<path d="M2531.77 87.9728V157.782H2715.6H2899.43V590.602V1023.42H2969.24H3039.05V590.602V157.782L3224.28 156.852L3409.04 155.455L3410.44 86.5766L3411.83 18.1631H2971.57H2531.77V87.9728Z" fill="#05162B"/>
<path d="M3720.38 433.766C3719.45 437.024 3718.99 469.136 3719.45 504.507L3720.85 569.662L4185.32 571.058L4649.32 571.989V499.853V427.716H4186.25C3810.67 427.716 3722.25 428.647 3720.38 433.766Z" fill="#05162B"/>
<path d="M3718.52 934.994V1009.46H4183.91H4649.31V934.994V860.53H4183.91H3718.52V934.994Z" fill="#05162B"/>
</svg>
