<svg width="5849" height="1040" viewBox="0 0 5849 1040" fill="none" xmlns="http://www.w3.org/2000/svg">
<path d="M1679.38 6.43013C1578.54 21.5555 1483.2 70.1401 1407.12 146.225C1340.66 212.227 1293.91 296.104 1273.28 385.481C1259.53 442.775 1258.61 560.111 1271.45 617.862C1307.2 783.783 1440.58 932.287 1599.62 984.08C1651.42 1001.04 1690.38 1007 1755 1007.46C1833.38 1008.37 1872.8 1002.87 1933.76 982.247C1990.59 963.454 2029.09 943.287 2075.84 908.453C2226.18 795.7 2303.18 620.612 2279.81 444.15C2254.14 246.145 2122.14 89.8489 1925.05 22.9306C1890.21 11.0136 1804.5 -0.445027 1755.46 0.013318C1736.67 0.471663 1702.29 3.22172 1679.38 6.43013ZM1826.5 132.933C1903.96 143.475 1969.51 175.101 2029.09 230.561C2088.68 286.021 2124.43 350.189 2140.47 429.024C2151.93 487.692 2151.93 524.818 2140.01 583.028C2111.14 724.657 2005.72 835.118 1863.17 873.16C1814.13 886.452 1711 885.536 1661.96 871.327C1584.96 849.327 1515.29 801.659 1465.79 737.49C1416.74 673.78 1388.78 590.362 1388.78 506.026C1388.78 370.356 1456.16 249.811 1572.12 178.31C1636.75 138.434 1737.13 120.558 1826.5 132.933Z" fill="#5A8BE0"/>
<path d="M5758.18 13.3073L5670.18 15.599L5556.97 153.102C5494.64 228.729 5420.84 318.107 5393.34 351.108C5366.3 384.567 5342.01 412.984 5340.63 413.901C5338.8 415.276 5327.8 404.276 5315.88 390.067C5270.51 333.69 5164.17 203.062 5088.08 110.476L5008.79 13.3073H4917.58H4826.37L4893.75 96.7261C4930.87 143.019 5023.92 258.522 5100 354.316L5238.88 527.57L5221.92 549.113C5212.75 560.571 5182.96 597.239 5155.92 629.781C5128.88 662.782 5084.42 717.783 5057.38 751.701C5029.87 786.077 4967.54 862.62 4919.41 922.205C4870.83 981.79 4830.95 1032.67 4830.95 1035.42C4830.95 1038.17 4863.04 1040 4921.7 1040H5012.46L5085.33 949.706C5125.67 900.205 5179.29 834.203 5204.96 803.494C5230.63 772.785 5269.59 724.659 5291.59 696.7C5314.05 668.741 5333.3 645.823 5334.67 646.282C5336.05 646.282 5408.01 734.742 5494.64 843.37L5651.85 1040H5743.98C5818.23 1040 5835.19 1038.62 5833.35 1034.04C5830.14 1025.79 5740.31 913.497 5578.51 716.867C5551.93 684.324 5506.55 628.865 5478.59 593.572L5426.8 529.862L5446.97 506.486C5457.51 493.653 5495.09 447.818 5529.93 405.192C5564.76 362.108 5618.39 296.106 5649.56 258.522C5853.52 9.18217 5850.31 13.3073 5848.02 11.9322C5847.1 11.4739 5806.77 11.9322 5758.18 13.3073Z" fill="white"/>
<path d="M3.20841 16.5156C1.37503 17.8906 0 242.021 0 513.82V1007.92H68.7517H137.503V577.072V146.227H297.924H458.345V577.072V1007.92H524.805H591.265V577.072V146.227L743.894 147.144L896.064 148.519L897.439 577.988L898.356 1007.92H967.108H1035.86L1034.94 511.528L1033.57 15.599L519.763 14.2239C237.423 13.7655 4.58345 14.6822 3.20841 16.5156Z" fill="white"/>
<path d="M3671.34 85.2665V155.393H4127.4H4583.45V85.2665V15.598H4127.4H3671.34V85.2665Z" fill="white"/>
<path d="M2493.4 86.6424V155.394H2674.45H2855.49V581.655V1007.92H2924.25H2993V581.655V155.394L3175.42 154.477L3357.38 153.102L3358.76 85.2674L3360.13 17.8907H2926.54H2493.4V86.6424Z" fill="white"/>
<path d="M3664.01 427.193C3663.09 430.401 3662.63 462.027 3663.09 496.861L3664.47 561.03L4121.89 562.405L4578.86 563.321V492.278V421.234H4122.81C3752.93 421.234 3665.84 422.151 3664.01 427.193Z" fill="white"/>
<path d="M3662.17 920.83V994.166H4120.52H4578.86V920.83V847.495H4120.52H3662.17V920.83Z" fill="white"/>
</svg>
