<svg width="446" height="415" viewBox="0 0 446 415" fill="none" xmlns="http://www.w3.org/2000/svg">
<path d="M110.161 0C112.152 0.0131932 113.899 0.315637 115.615 0.84375C115.997 0.961106 116.376 1.08955 116.757 1.22852C117.708 1.57597 118.665 1.98869 119.663 2.45605V3.54785H120.755V4.64062H121.848V5.73242L123.485 6.27832C124.385 7.172 124.386 7.17245 125.328 8.29199C125.372 8.3443 125.417 8.39689 125.461 8.44922C126.179 8.99268 126.746 9.67271 127.308 10.6475L128.163 11.6074C130.038 13.7333 130.038 13.7332 130.038 15.5615H131.131V16.6543H132.223V17.7461H133.314V19.3848H134.407V20.4766H135.499V21.5684H136.592C136.859 21.8223 137.123 22.0791 137.383 22.3389C139.202 24.1569 140.796 26.1445 141.506 28.668H142.598V29.7598H143.69L144.782 32.4902H145.875V33.582H146.967V34.6748H148.059V36.3125H149.151V37.4053H150.243L150.892 38.5654C151.518 39.5586 152.179 40.3078 152.93 40.9961C153.18 41.2255 153.44 41.4482 153.713 41.6709C154.076 41.9678 154.461 42.2651 154.872 42.5781C155.847 43.5556 156.036 44.2503 156.25 45.5957H157.342V46.6885H158.435L159.526 49.4189H160.618V50.5107H161.711V51.6025H162.803V53.2412H163.896V54.333H164.987L165.528 54.96C166.626 56.2449 166.625 56.3968 166.625 57.6094H167.718L168.438 58.418C169.902 60.0725 169.902 60.224 169.902 61.4326H170.994V62.5244H172.086L172.632 63.8887L173.179 64.1621V65.2549H174.271V66.3467H175.362V67.4395H176.455L176.888 67.9541C177.003 68.093 177.096 68.2092 177.192 68.335C177.384 68.5867 177.586 68.8759 177.99 69.4531C179.016 70.8777 180.027 72.1692 181.301 73.3779C181.684 73.7609 182.067 74.1435 182.462 74.5381V75.6299H183.554V76.7227H184.646L185.233 78.1914C185.4 78.2471 185.569 78.3038 185.738 78.3604V79.4531H186.83V80.5449H187.923C188.283 81.4459 188.643 82.3472 189.015 83.2754H190.106V84.3672H191.199L192.291 86.0059C192.266 86.0817 192.24 86.1575 192.215 86.2334C192.221 86.2618 192.228 86.2901 192.233 86.3193C192.272 86.5368 192.285 86.7799 192.289 87.0996C192.29 87.1479 192.289 87.198 192.289 87.25C192.937 87.767 193.649 88.255 194.476 88.7363C195.011 89.2311 195.522 89.7451 196.021 90.2705C196.27 90.5259 196.511 90.7912 196.755 91.0596C197.054 91.3864 197.352 91.7156 197.649 92.0469C197.924 92.3428 198.198 92.6385 198.48 92.9434C199.982 94.5957 200.357 95.0091 200.451 95.6328C200.459 95.6851 200.464 95.7389 200.469 95.7949C200.482 95.9621 200.482 96.1499 200.482 96.3809H201.574C202.359 97.2981 202.36 97.2983 203.213 98.4971C204.083 99.7108 204.884 100.784 205.942 101.842V103.479H207.035V104.572H208.127V105.664H209.22L209.732 106.178C210.91 107.393 211.962 108.73 213.042 110.033C213.647 110.759 213.647 110.759 214.264 111.5C215.837 113.422 216.624 114.384 217.018 115.02C217.116 115.178 217.189 115.317 217.244 115.445C217.41 115.83 217.41 116.121 217.41 116.586H218.503V117.678H219.595C219.955 118.579 220.315 119.48 220.687 120.408H221.779L222.734 122.013C223.667 123.582 223.783 123.778 224.982 124.064C225.153 124.105 225.347 124.147 225.567 124.196C225.962 124.204 226.339 124.202 226.707 124.187C227.81 124.141 228.829 123.986 229.97 123.685C230.038 123.224 230.038 123.224 230.108 122.755C230.124 122.706 230.142 122.659 230.158 122.611C230.096 122.425 230.033 122.237 229.97 122.047C230.367 121.589 230.768 121.134 231.167 120.678C231.271 120.534 231.379 120.392 231.491 120.252C231.842 119.815 232.234 119.384 232.666 118.906C233.248 118.252 233.248 118.252 233.842 117.584C234.103 117.334 234.298 117.147 234.462 117.007C234.471 116.999 234.481 116.991 234.49 116.983C234.621 116.852 234.752 116.72 234.885 116.586H235.977C236.05 116.371 236.124 116.155 236.198 115.938C236.125 115.791 236.051 115.643 235.977 115.493C236.411 114.881 236.851 114.272 237.292 113.663C237.293 113.662 237.294 113.661 237.295 113.659C237.624 113.126 237.984 112.626 238.387 112.128C238.655 111.796 238.942 111.465 239.253 111.125H240.346C240.706 110.224 241.066 109.323 241.438 108.395H242.53V107.303H243.622C243.752 107 243.881 106.697 244.015 106.386C244.195 106.058 244.385 105.747 244.584 105.449C244.621 105.393 244.657 105.335 244.694 105.279C245.404 104.226 246.215 103.308 247.104 102.319C247.524 101.845 247.945 101.371 248.379 100.882C248.522 100.742 248.66 100.611 248.796 100.488C248.913 100.382 249.03 100.282 249.145 100.187C249.294 100.029 249.443 99.8703 249.594 99.7139C249.966 99.3278 250.341 98.9447 250.721 98.5654L251.256 98.833C251.272 98.8249 251.288 98.8167 251.305 98.8086C251.467 98.7285 251.636 98.648 251.813 98.5654C251.895 98.306 251.956 98.1111 252.006 97.9473C252.032 97.8602 252.051 97.7808 252.072 97.7061C251.987 97.4489 251.901 97.1894 251.813 96.9268C252.803 95.4596 252.803 95.459 253.997 94.1963H255.09L256.182 91.4668H257.273V90.374H258.366C258.524 90.0476 258.681 89.7211 258.844 89.3848C259.458 88.1902 259.459 88.19 260.551 86.5518H261.643C261.788 86.2322 261.934 85.9123 262.084 85.583C262.745 84.3474 263.474 83.4286 264.407 82.3877C265.282 81.4087 265.97 80.6289 266.558 79.4531H267.649V78.3604H268.741V77.2686H269.834C270.194 76.3676 270.554 75.4664 270.926 74.5381H272.018V73.4463H273.11C273.471 72.5454 273.831 71.644 274.202 70.7158H275.294C275.44 70.4005 275.587 70.0847 275.738 69.7598C276.403 68.5009 277.098 67.4275 278.024 66.3467H279.117V65.2549C279.928 64.7143 279.928 64.7136 280.755 64.1621L281.301 62.5244H282.394V61.4326H283.485V59.7939H284.578V58.7021H285.67V57.6094H286.762C286.886 57.2265 287.01 56.8437 287.138 56.4492C287.927 54.7213 288.841 53.5242 290.049 52.1865C290.221 51.9955 290.399 51.8012 290.584 51.6025H291.677C291.812 51.2987 291.947 50.9947 292.086 50.6816C292.894 49.1873 293.825 47.9572 294.953 46.6885H296.045V45.5957H297.138V44.5039H298.229V42.8652H299.321C299.682 42.1445 300.043 41.4242 300.414 40.6816H301.506C301.559 40.3656 301.613 40.0492 301.668 39.7236C302.129 38.2495 302.79 37.4853 303.827 36.3467L304.861 35.2061C304.955 35.1068 305.049 35.0081 305.143 34.9092C305.384 34.6517 305.627 34.3935 305.875 34.1289C306.146 33.8354 306.417 33.5417 306.696 33.2393C307.306 32.5999 307.952 31.9948 308.604 31.3984H309.697C309.754 31.0493 309.81 30.6996 309.868 30.3398C309.992 29.9683 310.116 29.5967 310.243 29.2139C311.054 28.9436 311.055 28.9437 311.882 28.668C312.017 28.2963 312.152 27.924 312.291 27.541C313.159 25.5003 314.454 24.1562 315.945 22.5352C316.835 21.6082 316.834 21.6078 317.342 20.4766H318.435C318.592 20.15 318.75 19.8228 318.912 19.4863C319.006 19.3047 319.085 19.151 319.156 19.0146C319.098 18.9562 319.039 18.8968 318.98 18.8379C319.731 17.7462 319.731 17.7459 320.618 16.6543H321.711V15.5615C322.78 14.35 323.256 13.8105 323.698 13.5703C323.764 13.5062 323.83 13.4419 323.896 13.3779C324.076 13.0175 324.256 12.6565 324.441 12.2852H325.533V11.1934H326.625V9.55469H327.718V8.46289H328.81V7.37109H329.902V5.73242H330.994V4.64062H332.086V3.54785C332.568 3.25538 332.974 3.04076 333.351 2.89355C333.589 2.77065 333.827 2.64684 334.065 2.52441C334.433 2.33441 334.8 2.144 335.179 1.94824C338.484 0.433847 341.241 0.113978 344.822 0.130859C345.324 0.128946 345.827 0.126971 346.344 0.125C347.997 0.120209 349.65 0.123258 351.304 0.126953C352.455 0.126217 353.607 0.125393 354.759 0.124023C357.17 0.122415 359.582 0.123799 361.993 0.128906C365.083 0.135131 368.172 0.131537 371.262 0.125C373.639 0.121053 376.017 0.123147 378.395 0.125977C379.534 0.126705 380.673 0.125591 381.812 0.123047C383.404 0.120272 384.996 0.12478 386.588 0.130859C387.058 0.128649 387.528 0.126301 388.013 0.124023C388.307 0.126106 388.594 0.129514 388.873 0.136719C390.69 0.183542 392.226 0.374697 393.939 1.16992L394.339 1.36426V2.45605H396.523V3.54785H397.615V4.64062H398.707V5.73242H399.8L400.033 6.12988C400.192 6.40921 400.338 6.6885 400.475 6.9668C400.475 6.96784 400.476 6.96869 400.477 6.96973C401.239 8.467 401.771 9.91787 402.144 11.3906C402.173 11.5067 402.201 11.6229 402.229 11.7393H402.53C402.563 12.3966 402.596 13.0541 402.63 13.7314C402.635 13.8235 402.64 13.9158 402.645 14.0078C402.675 14.226 402.704 14.4451 402.729 14.666C402.891 16.0667 402.963 17.5266 402.999 19.0967C402.992 19.3269 402.986 19.5284 402.981 19.707C402.98 19.7654 402.979 19.8213 402.979 19.875C403.075 20.4547 403.253 20.9973 403.622 22.1152L403.674 22.668C403.72 23.2221 403.752 23.7775 403.775 24.333C403.806 24.9855 403.807 24.9857 403.838 25.6514C403.876 26.57 403.915 27.4886 403.953 28.4072C403.984 29.0597 403.983 29.06 404.015 29.7256C404.039 30.3243 404.039 30.3248 404.064 30.9355C404.113 31.9953 404.113 31.9956 404.714 33.0361C404.789 33.7798 404.837 34.5266 404.868 35.2734C404.899 35.9297 404.898 35.9301 404.93 36.5996C404.968 37.5254 405.007 38.4512 405.045 39.377C404.932 41.5719 404.932 41.5723 405.807 43.4121C405.954 45.1648 406.05 46.9136 406.137 48.6699C406.078 50.5703 406.078 50.5704 406.898 52.1484C406.977 52.914 407.022 53.6841 407.052 54.4531C407.072 54.9169 407.093 55.3806 407.114 55.8584C407.153 56.8438 407.191 57.8291 407.229 58.8145C407.25 59.2783 407.27 59.7428 407.291 60.2207C407.308 60.649 407.324 61.0773 407.341 61.5186C407.341 61.62 407.34 61.7113 407.341 61.7939C407.447 62.1309 407.638 62.4629 407.99 63.0703C408.138 65.0577 408.234 67.0416 408.321 69.0322C408.309 69.2956 408.299 69.5264 408.291 69.7314C408.28 70.0387 408.274 70.289 408.281 70.5078C408.307 71.3105 408.493 71.6887 409.083 72.8994C409.13 73.7122 409.141 74.5276 409.136 75.3418C409.134 75.8328 409.133 76.3242 409.131 76.8301C409.126 77.3463 409.122 77.8626 409.117 78.3945C409.115 78.913 409.112 79.4317 409.109 79.9658C409.103 81.251 409.094 82.5361 409.083 83.8213H410.175L410.275 85.7129C410.321 86.5269 410.368 87.3413 410.414 88.1553C410.436 88.5673 410.456 88.9798 410.479 89.4043C410.415 91.4219 410.415 91.4225 411.267 93.1045C411.314 94.037 411.325 94.9715 411.32 95.9053C411.319 96.4702 411.317 97.0352 411.315 97.6172C411.311 98.2116 411.305 98.8065 411.301 99.4189C411.298 100.015 411.296 100.612 411.294 101.227C411.287 102.706 411.278 104.185 411.267 105.664H412.359L412.46 107.795C412.506 108.711 412.551 109.628 412.598 110.545C412.63 111.241 412.63 111.241 412.663 111.951C412.686 112.393 412.709 112.835 412.732 113.29C412.762 113.903 412.762 113.904 412.793 114.529C412.804 115.385 412.805 115.492 413.238 115.862C413.3 115.915 413.371 115.974 413.451 116.04L413.558 117.135C413.654 118.225 413.72 119.303 413.759 120.408C413.752 120.55 413.745 120.684 413.739 120.812C413.753 121.091 413.769 121.37 413.782 121.649C413.763 122.15 413.748 122.526 413.75 122.834C413.75 122.882 413.749 122.929 413.75 122.974C413.753 122.991 413.755 123.008 413.758 123.025C413.856 123.64 414.085 124.201 414.544 125.323C414.654 126.587 414.72 127.854 414.772 129.121L414.826 130.389C414.837 130.589 414.848 130.786 414.86 130.979C414.922 131.948 415.017 132.839 415.263 133.746C415.279 133.806 415.296 133.866 415.313 133.926C415.669 134.154 415.741 134.341 415.958 134.918C416.049 135.457 416.121 135.997 416.183 136.537C416.195 136.645 416.208 136.753 416.219 136.861C416.237 137.034 416.254 137.207 416.271 137.38C416.275 137.416 416.281 137.453 416.286 137.489C416.367 138.121 416.408 138.757 416.436 139.405C416.443 139.576 416.446 139.748 416.452 139.921C416.464 140.129 416.478 140.337 416.489 140.545C416.512 140.951 416.536 141.358 416.56 141.776C416.605 142.642 416.64 143.508 416.668 144.373C416.67 144.384 416.673 144.394 416.675 144.405C416.791 144.958 416.977 145.597 417.274 146.62C417.418 148.382 417.516 150.139 417.604 151.904C417.548 153.791 417.548 153.792 418.366 155.357C418.445 156.083 418.49 156.812 418.52 157.541C418.54 157.98 418.561 158.42 418.582 158.872C418.62 159.805 418.658 160.738 418.696 161.671C418.717 162.11 418.738 162.549 418.759 163.002C418.775 163.407 418.792 163.813 418.809 164.23C418.813 165.201 418.813 165.201 419.458 165.732C419.516 166.456 419.567 167.177 419.612 167.898C419.658 168.62 419.698 169.343 419.731 170.067C419.755 172.901 419.755 172.901 420.551 175.562C420.627 176.379 420.674 177.199 420.704 178.02C420.725 178.504 420.745 178.988 420.766 179.486C420.804 180.51 420.842 181.535 420.881 182.559C420.901 183.043 420.922 183.527 420.943 184.026C420.96 184.471 420.976 184.916 420.993 185.374C421.003 185.66 421.01 185.875 421.025 186.053C421.04 186.231 421.063 186.371 421.104 186.509C421.185 186.784 421.338 187.048 421.643 187.575C421.673 188.658 421.686 189.731 421.683 190.81C421.683 190.909 421.684 191.007 421.684 191.106C421.683 191.499 421.681 191.892 421.677 192.285C421.674 192.723 421.671 193.161 421.669 193.612L421.649 195.907C421.669 196.258 421.687 196.574 421.702 196.858H422.734C422.767 197.483 422.801 198.108 422.835 198.751C422.881 199.565 422.927 200.379 422.974 201.193C422.995 201.605 423.017 202.018 423.039 202.442C422.976 204.46 422.976 204.46 423.827 206.142C423.847 206.878 423.86 207.611 423.865 208.344C423.871 209.076 423.869 209.809 423.861 210.545C423.859 210.959 423.856 211.373 423.854 211.8L423.827 214.879H424.919V225.801H426.011V235.63H427.104V246.006H428.195V255.835H429.288C429.288 255.845 429.288 255.856 429.288 255.866L429.368 258.009C429.409 258.956 429.451 259.904 429.492 260.852C429.509 261.324 429.527 261.796 429.544 262.282C429.619 263.917 429.767 265.28 430.139 266.677C430.426 266.885 430.504 267.093 430.704 267.64C430.771 268.032 430.826 268.426 430.876 268.82C430.893 268.86 430.909 268.9 430.926 268.94C431.068 270.245 431.168 271.555 431.233 272.865C431.238 273.112 431.242 273.335 431.246 273.538C431.27 273.987 431.292 274.435 431.318 274.884C431.32 274.944 431.322 275.002 431.323 275.059C431.408 275.776 431.59 276.342 432.018 277.678C432.162 279.423 432.26 281.166 432.349 282.915C432.435 285.007 432.435 285.007 433.11 286.961C433.284 288.927 433.39 290.894 433.503 292.865C433.531 294.022 433.543 294.383 433.76 294.869C433.857 295.087 433.995 295.334 434.202 295.698C434.278 296.442 434.325 297.189 434.355 297.936C434.376 298.373 434.397 298.811 434.418 299.262C434.456 300.187 434.495 301.113 434.533 302.039C434.52 302.295 434.508 302.522 434.499 302.725C434.502 302.771 434.507 302.818 434.51 302.865C434.507 303.427 434.507 303.811 434.531 304.119C434.619 304.652 434.836 305.112 435.294 306.074L435.377 307.132C435.454 308.189 435.517 309.244 435.567 310.306C435.661 312.396 435.691 313.039 435.847 314.229C435.916 314.397 436.002 314.583 436.109 314.802C436.19 314.966 436.282 315.149 436.387 315.357C436.424 315.854 436.457 316.351 436.488 316.848C436.582 318.337 436.652 319.826 436.717 321.319C436.686 321.978 436.666 322.43 436.678 322.795C436.685 323.014 436.704 323.201 436.739 323.382C436.751 323.442 436.765 323.502 436.781 323.562C436.813 323.682 436.852 323.804 436.901 323.934C437.025 324.258 437.21 324.636 437.479 325.187C437.626 327.057 437.723 328.923 437.81 330.797C437.741 332.55 437.732 332.769 438.294 333.915C438.374 334.079 438.466 334.261 438.571 334.47C438.591 334.661 438.608 334.853 438.624 335.045C438.671 335.62 438.702 336.197 438.725 336.773C438.745 337.237 438.765 337.701 438.786 338.179C438.825 339.164 438.863 340.15 438.901 341.136C438.922 341.599 438.942 342.063 438.963 342.541C438.979 342.969 438.997 343.399 439.014 343.84C439.011 344.854 439.011 344.854 439.663 345.392C439.693 346.564 439.706 347.728 439.704 348.896C439.703 349.286 439.701 349.677 439.697 350.067C439.695 350.508 439.692 350.948 439.689 351.401C439.683 352.492 439.673 353.584 439.663 354.675H440.755V363.958H441.848L441.947 365.85C441.993 366.664 442.04 367.478 442.086 368.292C442.107 368.704 442.129 369.116 442.151 369.541C442.088 371.559 442.088 371.559 442.939 373.241C442.987 374.014 442.998 374.79 442.993 375.564C442.991 376.031 442.989 376.497 442.987 376.978C442.983 377.468 442.978 377.958 442.974 378.463C442.97 379.201 442.97 379.202 442.966 379.955C442.959 381.175 442.951 382.396 442.939 383.616H444.031C444.058 384.222 444.085 384.827 444.112 385.451C444.153 386.25 444.195 387.049 444.236 387.849C444.253 388.247 444.27 388.645 444.287 389.056C444.366 390.496 444.531 391.634 444.925 392.8L445.124 392.899C445.263 393.315 445.369 393.711 445.452 394.095C445.521 394.24 445.593 394.388 445.67 394.538C445.796 396.247 445.796 396.247 445.772 398.122C445.769 398.742 445.765 399.362 445.762 400.001C445.731 400.542 445.708 400.904 445.675 401.206C445.673 401.349 445.672 401.492 445.67 401.637H445.613C445.534 402.046 445.397 402.456 445.124 403.275H444.031V406.006H442.939V407.098H441.848C441.819 407.279 441.789 407.461 441.76 407.644H441.848C441.8 407.777 441.749 407.906 441.697 408.03C441.694 408.051 441.691 408.073 441.688 408.094C441.658 408.184 441.628 408.27 441.599 408.353C441.539 408.517 441.479 408.667 441.416 408.806C441.321 409.014 441.22 409.195 441.109 409.36C441.036 409.47 440.957 409.573 440.873 409.671C440.62 409.965 440.314 410.219 439.919 410.511C439.9 410.525 439.88 410.538 439.86 410.553C439.671 410.703 439.472 410.844 439.269 410.981C439.018 411.167 438.767 411.354 438.509 411.545C438.347 411.618 438.196 411.68 438.053 411.729C438.035 411.736 438.017 411.74 437.999 411.746C437.398 412.076 436.789 412.385 436.216 412.695C435.739 412.828 435.263 412.935 434.787 413.025C434.774 413.052 434.761 413.078 434.748 413.104C433.52 413.311 433.519 413.312 432.018 413.412L431.781 413.41C431.338 413.448 430.891 413.484 430.439 413.517C430.347 413.518 430.261 413.515 430.183 413.517C430.054 413.552 429.927 413.598 429.789 413.657C429.626 413.728 429.447 413.818 429.23 413.933C429.086 414.009 428.925 414.096 428.741 414.196C427.956 414.25 427.169 414.267 426.382 414.268C425.881 414.269 425.379 414.271 424.863 414.272C424.319 414.271 423.774 414.271 423.213 414.27C422.657 414.27 422.102 414.27 421.529 414.271C420.352 414.271 419.175 414.27 417.998 414.268C416.19 414.265 414.381 414.268 412.572 414.271L409.151 414.27C408.334 414.271 408.334 414.271 407.5 414.272C406.999 414.271 406.498 414.269 405.981 414.268C405.538 414.267 405.095 414.266 404.638 414.266C404.257 414.24 404.018 414.224 403.841 414.185C403.545 414.12 403.417 413.992 403.076 413.65C402.087 413.592 401.097 413.549 400.106 413.514C399.449 413.467 398.825 413.391 398.226 413.286C397.826 413.216 397.437 413.133 397.057 413.037C396.296 412.846 395.567 412.604 394.85 412.315C394.49 412.171 394.134 412.015 393.777 411.847C393.599 411.763 393.422 411.676 393.243 411.586C392.708 411.317 392.169 411.022 391.618 410.702C391.434 410.596 391.249 410.486 391.062 410.374V409.282H389.97V408.189H388.878V407.098H387.786V406.006H386.693V404.913H385.602V403.275H384.51V402.183H383.417C382.683 401.095 381.957 400.001 381.233 398.906C380.738 398.411 380.242 397.916 379.731 397.405C379.326 397 378.921 396.594 378.503 396.176V395.084H377.41L376.318 392.354H375.227C374.164 391.197 374.164 391.197 372.974 389.691C372.578 389.197 372.182 388.703 371.774 388.194C371.545 387.869 371.373 387.625 371.244 387.425C371.223 387.393 371.206 387.36 371.188 387.33C370.912 386.911 370.867 386.702 370.859 386.163C370.858 386.056 370.857 385.937 370.857 385.801H369.766V384.163H368.673V383.07H367.581C366.646 382.182 365.744 381.264 364.957 380.271C364.707 379.956 364.469 379.633 364.245 379.301C362.849 377.569 362.688 377.265 362.669 375.982L362.666 375.972H361.574V374.879H360.482L359.39 372.149H358.298L357.206 369.419H356.113C355.84 369.01 355.636 368.702 355.482 368.446C355.405 368.318 355.341 368.203 355.288 368.094C355.261 368.039 355.237 367.987 355.216 367.935C355.173 367.831 355.138 367.73 355.112 367.626C355.086 367.522 355.068 367.415 355.055 367.298C355.052 367.274 355.05 367.249 355.048 367.225C354.81 366.759 354.568 366.305 354.321 365.859C354.245 365.829 354.168 365.798 354.091 365.767C353.991 365.709 353.893 365.651 353.797 365.592C353.76 365.569 353.725 365.544 353.688 365.521C353.183 365.405 352.862 365.105 352.028 364.32C351.531 363.772 351.039 363.218 350.551 362.661C350.298 362.384 350.044 362.106 349.783 361.82C349.507 361.511 349.273 361.248 349.072 361.02L348.921 360.852C348.895 360.819 348.871 360.788 348.847 360.757C348.353 360.182 348.122 359.857 348.016 359.528C348.012 359.519 348.009 359.51 348.006 359.501C347.922 359.244 347.922 358.975 347.922 358.497H346.83C346.624 358.268 346.47 358.096 346.341 357.948C345.952 357.505 345.786 357.28 345.124 356.381C344.83 355.988 344.536 355.595 344.232 355.19C343.554 354.128 343.554 354.128 343.554 353.036H342.462V351.944H341.369V350.306H340.277V349.214H339.186V348.122H338.093C337.15 347.085 337.15 347.085 336.113 345.732C335.768 345.289 335.424 344.846 335.068 344.389C334.37 343.355 334.283 343.225 334.272 342.478L334.271 342.115H333.179V341.022H332.086V339.385H330.994V338.292H329.902C328.81 336.654 328.81 336.654 328.81 335.016C328.472 334.858 328.134 334.7 327.786 334.538C327.206 334.231 326.915 334.078 326.634 333.864C326.352 333.651 326.079 333.378 325.533 332.832V331.193H324.441V330.102C324.123 329.972 323.804 329.842 323.477 329.709C321.997 328.86 321.238 327.906 320.209 326.552C319.874 326.118 319.539 325.684 319.193 325.237C318.529 324.237 318.446 324.112 318.436 323.365L318.435 323.002H317.342V321.91H316.25V320.818H315.158V319.18H314.065V318.088H312.974V316.995H311.882V315.357H310.789V314.265H309.697C309.144 313.359 308.599 312.448 308.059 311.534L305.875 309.351V308.258H304.782C304.021 307.399 303.298 306.505 302.598 305.596C301.041 303.579 301.041 303.579 299.321 301.705V300.067H298.229V298.975H297.138V297.883H296.045V296.244H294.953V295.152H293.861C292.984 294.205 292.147 293.22 291.335 292.217C290.889 291.672 290.443 291.127 289.983 290.566C289.336 289.679 289.092 289.345 289.001 288.954C288.983 288.876 288.971 288.795 288.963 288.707C288.955 288.619 288.95 288.524 288.948 288.417L288.946 288.054H287.854V286.961H286.762V285.323H285.67V284.23H284.578C282.667 282.094 282.427 281.828 282.397 280.869L282.394 280.408H281.301C280.616 279.63 280.617 279.629 279.902 278.6C279.665 278.264 279.427 277.928 279.183 277.582C277.827 275.376 277.753 273.093 278.024 270.579C278.365 269.719 278.713 268.923 279.137 268.189C279.165 268.14 279.194 268.092 279.224 268.043C279.556 267.369 280.03 266.792 280.709 266.174C280.801 266.087 280.896 266 280.995 265.915C281.094 265.83 281.196 265.746 281.301 265.664H282.394V264.572H283.485C283.543 264.25 283.6 263.928 283.659 263.596C283.667 263.572 283.674 263.548 283.682 263.524C283.617 263.329 283.552 263.132 283.485 262.934C283.714 262.691 283.943 262.449 284.179 262.199C284.26 262.113 284.341 262.026 284.422 261.939L284.424 261.938C284.735 261.477 285.118 261.06 285.618 260.541C285.934 260.208 286.251 259.874 286.576 259.531C286.908 259.19 287.239 258.849 287.581 258.497C288.236 257.814 288.891 257.13 289.544 256.445C289.835 256.145 290.126 255.844 290.426 255.534C290.711 255.24 290.89 255.056 291.027 254.883C291.068 254.831 291.104 254.78 291.14 254.728C291.303 254.482 291.428 254.204 291.677 253.65H292.769C292.915 253.332 293.062 253.014 293.213 252.687C293.377 252.378 293.545 252.085 293.719 251.804C293.78 251.705 293.843 251.607 293.906 251.511L293.861 251.466C294.014 251.278 294.169 251.091 294.322 250.903C294.682 250.404 295.07 249.921 295.499 249.419C295.781 249.084 296.062 248.749 296.353 248.403C296.451 248.308 296.536 248.225 296.613 248.152C296.687 248.083 296.753 248.023 296.814 247.971C296.921 247.862 297.029 247.754 297.138 247.644H298.229V246.552H299.321V244.913H300.414C300.572 244.587 300.729 244.26 300.892 243.924C301.506 242.729 301.506 242.729 302.598 241.091H303.69C303.831 240.778 303.972 240.466 304.117 240.144C304.845 238.791 305.684 237.741 306.693 236.586C307.026 236.2 307.358 235.814 307.7 235.417C308.605 234.538 308.605 234.538 309.697 234.538V233.446H310.789C311.149 232.545 311.511 231.644 311.882 230.716H312.974V229.623H314.065V228.531H315.158C315.221 228.357 315.283 228.182 315.347 228.007C315.284 227.819 315.222 227.63 315.158 227.439C315.767 226.513 315.904 226.305 316.332 225.797C316.415 225.648 316.5 225.502 316.588 225.357C316.952 224.763 317.368 224.202 317.889 223.616H318.98V222.524C319.226 222.37 319.466 222.235 319.702 222.118C319.927 222.007 320.148 221.912 320.368 221.83C320.631 221.698 320.897 221.567 321.165 221.433L321.291 221.559C321.437 221.526 321.584 221.498 321.731 221.475C321.724 221.461 321.718 221.447 321.711 221.433H322.035C322.073 221.428 322.111 221.422 322.148 221.418C322.267 221.405 322.386 221.395 322.507 221.386C322.748 221.368 322.993 221.358 323.245 221.353C323.749 221.342 324.279 221.353 324.851 221.364C325.49 221.374 326.129 221.383 326.787 221.394C327.274 221.406 327.762 221.42 328.264 221.433V222.524H329.355C329.329 222.604 329.302 222.683 329.275 222.763C329.325 222.774 329.374 222.786 329.424 222.798C331.678 223.974 333.009 225.797 334.271 227.985V229.623C334.777 229.86 334.777 229.86 335.294 230.102C336.454 230.716 336.455 230.716 337.547 231.808V233.446H338.639V234.538H339.731L340.823 237.269H341.916V238.36H343.008L343.549 238.987C344.176 239.721 344.444 240.086 344.56 240.489C344.588 240.59 344.607 240.693 344.62 240.806C344.646 241.03 344.646 241.29 344.646 241.637H345.738L346.284 243.002C346.419 243.07 346.557 243.139 346.83 243.275V244.367H347.923V245.46H349.015L349.735 246.268C350.258 246.859 350.595 247.258 350.811 247.582C350.854 247.647 350.892 247.709 350.926 247.769C351.199 248.246 351.199 248.592 351.199 249.282H352.291L353.383 250.92C353.358 250.996 353.332 251.072 353.307 251.147C353.313 251.176 353.32 251.204 353.325 251.233C353.344 251.342 353.358 251.458 353.366 251.586C353.375 251.713 353.378 251.854 353.38 252.013C353.742 252.179 354.105 252.36 354.476 252.559V253.65H355.567C356.51 254.687 356.51 254.688 357.547 256.04C357.892 256.483 358.236 256.927 358.592 257.384C358.791 257.679 358.942 257.901 359.054 258.084C359.079 258.125 359.1 258.166 359.121 258.203C359.19 258.296 359.273 258.408 359.39 258.565C359.369 258.606 359.349 258.647 359.328 258.688C359.335 258.715 359.342 258.742 359.348 258.77C359.39 258.992 359.39 259.248 359.39 259.657C359.846 259.826 359.846 259.827 360.312 259.999C360.419 260.063 360.525 260.129 360.627 260.196C360.832 260.331 361.025 260.473 361.211 260.62C362.047 261.283 362.712 262.062 363.386 262.894C363.685 263.263 363.986 263.643 364.305 264.026L365.942 264.572C365.866 263.309 365.786 262.047 365.704 260.784C365.66 260.081 365.615 259.377 365.569 258.652C365.579 257.828 365.584 257.416 365.494 257.132C365.472 257.061 365.443 256.998 365.407 256.938C365.3 256.76 365.127 256.614 364.851 256.381C364.771 255.542 364.727 254.7 364.697 253.857C364.677 253.347 364.656 252.836 364.635 252.31C364.616 251.772 364.598 251.235 364.578 250.682C364.541 249.624 364.5 248.567 364.458 247.51C364.454 247.399 364.45 247.288 364.446 247.178C364.38 246.319 364.295 245.469 364.192 244.619C364.169 244.568 364.145 244.513 364.115 244.455C364.028 244.287 363.913 244.087 363.759 243.821C363.615 242.06 363.516 240.301 363.428 238.536C363.46 237.475 363.473 237.011 363.334 236.529C363.318 236.476 363.301 236.422 363.281 236.367C363.164 236.038 362.973 235.671 362.666 235.084C362.587 234.119 362.542 233.15 362.513 232.183C362.492 231.596 362.472 231.009 362.451 230.404C362.413 229.156 362.374 227.907 362.336 226.658C362.316 226.071 362.294 225.484 362.273 224.879C362.257 224.336 362.241 223.793 362.224 223.234C362.254 222.153 362.258 222.018 361.8 221.621L361.574 221.433C361.42 220.164 361.328 218.886 361.268 217.609C361.273 217.476 361.277 217.35 361.281 217.231C361.248 216.652 361.214 216.073 361.182 215.493C361.185 215.333 361.187 215.188 361.189 215.057C361.107 214.727 360.977 214.385 360.773 213.909L360.482 213.241C360.463 213.002 360.445 212.761 360.429 212.521C360.413 212.281 360.399 212.041 360.387 211.801C360.362 211.321 360.343 210.84 360.328 210.359C360.308 209.775 360.288 209.19 360.267 208.588C360.238 207.665 360.238 207.664 360.209 206.723C360.171 205.512 360.132 204.301 360.09 203.09C360.073 202.55 360.056 202.01 360.039 201.454C360.034 201.123 360.03 200.874 360.018 200.671C360.005 200.468 359.983 200.31 359.942 200.159C359.922 200.084 359.897 200.011 359.866 199.935C359.804 199.782 359.718 199.618 359.598 199.404C359.537 199.298 359.468 199.179 359.39 199.043C359.246 197.281 359.148 195.524 359.06 193.759C359.116 191.872 359.116 191.872 358.298 190.306C358.219 189.46 358.174 188.612 358.145 187.764C358.114 186.994 358.113 186.993 358.082 186.208C358.044 185.118 358.005 184.027 357.967 182.937C357.936 182.167 357.937 182.166 357.905 181.381C357.88 180.67 357.881 180.67 357.855 179.944C357.871 178.841 357.871 178.841 357.206 178.292C357.166 177.007 357.16 175.721 357.172 174.436C357.177 173.731 357.181 173.027 357.187 172.301L357.206 170.647H356.113V158.088H355.021C355.001 157.596 355 157.596 354.979 157.094C354.916 155.616 354.849 154.139 354.782 152.661C354.761 152.145 354.74 151.628 354.718 151.097C354.695 150.606 354.672 150.114 354.648 149.608C354.618 148.926 354.618 148.926 354.587 148.23C354.587 147.297 354.588 147.181 354.146 146.802L353.929 146.62C353.74 145.326 353.613 144.057 353.548 142.798C353.42 140.914 353.377 139.026 353.417 137.132C353.438 135.48 353.184 134.188 352.753 132.757C352.707 132.627 352.667 132.495 352.63 132.362C352.525 132.03 352.412 131.687 352.291 131.33C352.14 129.933 352.031 128.539 351.939 127.14C351.893 126.68 351.86 126.251 351.856 125.83C351.72 125.295 351.52 124.675 351.199 123.685C351.122 122.668 351.075 121.649 351.045 120.63C351.025 120.022 351.004 119.415 350.983 118.789C350.945 117.502 350.907 116.215 350.868 114.929C350.848 114.321 350.828 113.714 350.807 113.088C350.79 112.529 350.773 111.969 350.756 111.393C350.749 110.883 350.746 110.564 350.71 110.308C350.692 110.179 350.666 110.067 350.628 109.953C350.59 109.839 350.54 109.725 350.473 109.594C350.383 109.419 350.265 109.214 350.106 108.94C349.992 107.437 349.902 105.941 349.834 104.436C349.708 101.712 349.528 99.0763 349.016 96.3906C348.967 96.3987 348.917 96.4059 348.864 96.4131C345.969 97.0403 344.749 97.7526 343.008 100.203H341.916V101.296C341.434 101.613 340.95 101.912 340.461 102.199C340.38 102.401 340.298 102.603 340.217 102.807C340.213 102.826 340.213 102.846 340.209 102.865C340.158 103.121 340.068 103.339 339.911 103.662L339.731 104.026H338.639V105.118H337.547V106.21H336.455C336.399 106.559 336.342 106.909 336.284 107.269C336.28 107.28 336.276 107.291 336.272 107.302C336.333 107.483 336.394 107.665 336.455 107.849C336.299 107.953 336.142 108.056 335.986 108.16C335.96 108.238 335.935 108.316 335.909 108.395C335.728 108.455 335.545 108.515 335.363 108.576C334.943 108.856 334.521 109.137 334.096 109.421C334.018 109.634 333.941 109.849 333.861 110.067C332.857 112.427 331.21 114.278 329.355 116.04H328.264V117.132H327.391L327.172 118.224H326.079V119.862H324.987V120.954H323.896V122.047H322.803C322.744 122.371 322.685 122.695 322.624 123.029C322.618 123.049 322.61 123.068 322.604 123.087L322.803 123.685C322.02 124.8 322.02 124.801 320.926 125.972C320.566 126.362 320.206 126.753 319.836 127.155C319.554 127.452 319.271 127.748 318.98 128.054L318.92 127.872C318.894 127.898 318.869 127.925 318.844 127.951C316.956 129.896 315.167 131.792 313.631 134.032C313.234 134.582 312.837 135.132 312.428 135.698H311.335V136.791H310.243L309.151 138.975H308.059V140.613H306.967C306.834 140.919 306.702 141.226 306.565 141.541C305.736 143.049 304.723 144.163 303.554 145.426C303.053 145.971 302.556 146.519 302.062 147.068C301.746 147.419 301.433 147.772 301.119 148.125C300.802 148.486 300.487 148.849 300.174 149.214C299.807 149.642 299.443 150.074 299.083 150.511C298.621 151.029 298.159 151.547 297.684 152.081H296.592C296.536 152.4 296.479 152.72 296.421 153.049C296.413 153.075 296.403 153.102 296.395 153.128C296.46 153.323 296.526 153.52 296.592 153.719C295.828 154.796 295.827 154.796 294.748 155.938C293.671 157.063 293.402 157.344 292.875 158.149L292.223 159.18H291.131V160.271H290.038C289.909 160.575 289.781 160.879 289.648 161.191C288.776 162.764 287.688 163.911 286.455 165.221C285.059 166.73 283.666 168.253 282.322 169.816C282.13 170.04 281.939 170.264 281.749 170.489C281.728 170.515 281.706 170.54 281.685 170.565C281.739 170.592 281.793 170.62 281.848 170.647C281.146 171.561 280.44 172.47 279.731 173.378C279.339 173.885 278.946 174.391 278.541 174.913L277.479 176.108H276.387V177.2H275.294C274.934 178.101 274.573 179.002 274.202 179.931H273.11V181.022H272.018V182.115H271.472L270.571 183.21C270.396 183.422 270.218 183.632 270.042 183.844C270.019 183.881 269.997 183.92 269.974 183.957C269.446 184.786 268.861 185.498 268.161 186.278C267.287 187.258 266.599 188.038 266.011 189.214H264.919V190.306H263.827C263.669 190.632 263.511 190.959 263.349 191.296C262.734 192.49 262.735 192.491 261.643 194.129H260.551V195.221H259.458C259.098 196.122 258.738 197.023 258.366 197.951H257.274V199.043H256.182C255.962 199.516 255.962 199.516 255.738 199.999C255.074 201.258 254.378 202.331 253.451 203.412H252.359C251.999 204.313 251.639 205.214 251.268 206.143H250.175V207.234H249.083V208.326H247.99V209.965H246.898V211.057H245.807V212.149H244.714V213.787C244.331 214.091 243.948 214.396 243.554 214.709C243.444 214.797 243.337 214.885 243.232 214.974C243.209 214.994 243.186 215.015 243.162 215.035C242.626 215.848 242.417 216.101 241.335 217.405C240.899 217.942 240.463 218.478 240.015 219.03C239.633 219.413 239.318 219.719 239.017 219.965C238.914 220.089 238.811 220.214 238.707 220.34H238.487C238.181 220.521 237.855 220.648 237.454 220.741C237.386 220.911 237.319 221.08 237.251 221.25C237.371 221.31 237.493 221.371 237.615 221.433L236.523 223.07H235.431V224.162H234.339C233.979 225.063 233.618 225.964 233.247 226.893H232.154V227.985H231.062C230.702 228.886 230.341 229.788 229.97 230.716H228.878C228.743 231.054 228.608 231.391 228.469 231.739C228.127 232.32 227.957 232.61 227.73 232.823C227.634 232.915 227.524 232.987 227.389 233.067C227.35 233.098 227.313 233.129 227.273 233.158C226.937 233.405 226.554 233.595 226.071 233.799C225.884 234.168 225.707 234.551 225.536 234.953L225.602 235.084L225.056 236.176H223.963V237.269H222.871V238.906H221.779V239.999H220.687V241.091H219.595C219.46 241.496 219.325 241.902 219.186 242.319C218.954 242.828 218.721 243.267 218.467 243.665C218.416 243.745 218.364 243.822 218.312 243.898C217.787 244.664 217.168 245.289 216.318 246.006H215.227C215.162 246.237 215.093 246.467 215.027 246.701C215.093 246.832 215.16 246.964 215.227 247.098C214.976 247.384 214.725 247.669 214.475 247.955C214.398 248.093 214.32 248.23 214.239 248.365C213.834 249.046 213.385 249.691 212.898 250.309C212.801 250.432 212.703 250.554 212.603 250.676C212.402 250.919 212.196 251.157 211.984 251.393C211.773 251.628 211.557 251.86 211.336 252.089C211.004 252.433 210.663 252.771 210.312 253.104H209.22V254.196H208.127C207.767 255.097 207.406 255.999 207.035 256.927H205.943V258.02H204.851V259.111H203.759V260.75H202.666C202.548 261.034 202.429 261.318 202.308 261.611C201.277 263.469 199.944 265.006 198.571 266.62C198.299 266.949 198.026 267.278 197.745 267.616C197.395 268.03 197.036 268.436 196.672 268.838C196.401 269.137 196.125 269.431 195.85 269.727C193.33 273.715 190.371 277.168 186.16 280.949C186.146 280.934 186.131 280.918 186.117 280.902C185.946 281.077 185.774 281.254 185.602 281.433C185.075 281.988 184.549 282.544 184.023 283.101C183.855 283.278 183.685 283.453 183.515 283.633C183.325 283.845 183.135 284.057 182.947 284.271C182.266 285.048 181.599 285.837 180.949 286.649L179.731 288.054H178.639V289.146H177.547C177.491 289.472 177.434 289.799 177.376 290.136C176.947 291.501 176.471 292.081 175.362 292.968H174.271C174.233 293.268 174.196 293.569 174.157 293.879C174.136 293.942 174.111 294.003 174.089 294.063C174.149 294.243 174.21 294.424 174.271 294.606C173.7 295.225 173.677 295.248 173.137 295.833C173.126 295.848 173.116 295.864 173.105 295.879C172.923 296.128 172.727 296.366 172.521 296.603C172.107 297.076 171.651 297.54 171.165 298.054C169.512 299.818 167.888 301.579 166.353 303.446C165.902 303.953 165.451 304.459 164.987 304.981H163.896V306.62H162.803C162.679 307.014 162.555 307.408 162.428 307.814C162.374 307.929 162.319 308.041 162.264 308.15C161.428 309.785 160.353 310.776 158.98 312.081C158.676 312.498 158.372 312.914 158.059 313.344C157.822 313.648 157.585 313.951 157.342 314.265H156.25C156.013 314.755 156.014 314.755 155.772 315.255C155.465 315.852 155.312 316.151 155.099 316.505C154.992 316.682 154.87 316.873 154.707 317.122C154.544 317.371 154.338 317.678 154.065 318.088H152.974C152.828 318.407 152.682 318.727 152.532 319.056C151.871 320.291 151.142 321.21 150.209 322.251C149.335 323.23 148.647 324.011 148.059 325.187H146.967V326.278C146.34 326.924 145.709 327.566 145.06 328.189C144.845 328.403 144.628 328.62 144.411 328.838C144.336 328.914 144.262 328.99 144.187 329.066C143.68 329.662 143.173 330.257 142.666 330.852C142.375 331.194 142.083 331.536 141.783 331.889C141.627 332.067 141.469 332.244 141.31 332.419C141.238 332.522 141.168 332.626 141.1 332.731C140.848 333.118 140.618 333.515 140.414 333.924H139.868L139.321 335.016H138.229C138.01 335.489 138.01 335.489 137.786 335.972C137.703 336.129 137.62 336.284 137.535 336.436C137.496 336.506 137.455 336.575 137.415 336.645C137.323 336.829 137.231 337.014 137.138 337.2C137.123 337.195 137.109 337.19 137.095 337.186C137.068 337.23 137.042 337.275 137.015 337.319C136.567 338.036 136.078 338.709 135.499 339.385H134.407V341.022H133.314V342.115H132.223V343.207H131.131V344.299H130.038V345.392C129.91 345.349 129.781 345.306 129.652 345.263C129.419 345.845 129.185 346.432 128.946 347.029H127.854C127.731 347.435 127.606 347.84 127.479 348.258C126.617 350.062 125.592 350.718 124.031 351.944C123.298 353.033 122.57 354.125 121.848 355.221H120.755V356.312H119.663C119.123 357.664 119.123 357.664 118.571 359.043H117.479V360.136H116.387V361.228H115.294C114.753 362.579 114.754 362.579 114.202 363.958H113.11V365.05H112.018C111.866 365.59 111.866 365.591 111.711 366.143C110.594 368.474 108.975 370.37 107.104 372.149H106.011V373.241H104.919C104.378 374.593 104.379 374.593 103.827 375.972H102.734V377.063H101.643C101.529 377.44 101.416 377.817 101.299 378.205C100.31 380.303 98.9087 381.724 97.3076 383.378C96.7217 383.992 96.1368 384.607 95.5527 385.223C95.2798 385.509 95.0067 385.796 94.7256 386.091C93.9224 386.947 93.9223 386.948 93.04 388.205C92.8155 388.493 92.5907 388.781 92.3594 389.077H91.3809C91.3428 389.148 91.3048 389.219 91.2676 389.29V390.169L91.2666 390.168V390.17H90.8389C90.6043 390.685 90.3835 391.227 90.1748 391.808H89.083V392.899H87.9902V393.992H86.8984C86.8302 394.218 86.7614 394.444 86.6924 394.672L86.8984 395.084C86.5842 395.475 86.2688 395.864 85.9531 396.252C85.8848 396.365 85.8161 396.477 85.7451 396.586C85.3794 397.15 84.9796 397.67 84.5508 398.174C84.4651 398.274 84.3779 398.374 84.29 398.474C83.938 398.873 83.5686 399.265 83.1846 399.665C83.0157 399.841 82.8431 400.017 82.6689 400.197C81.2372 401.874 79.7749 403.524 78.2646 405.147C78.1726 405.295 78.0789 405.45 77.9814 405.614C77.5836 406.283 77.1292 407.1 76.5234 408.189C75.3972 408.565 75.3968 408.566 74.3389 408.736V409.828C73.1235 410.655 72.0101 411.28 70.8799 411.718C70.701 411.816 70.521 411.915 70.3389 412.015C70.0259 412.131 69.7422 412.222 69.4766 412.289C69.4166 412.304 69.357 412.315 69.2988 412.328C66.545 413.173 63.6014 413.262 60.6816 413.229C60.1307 413.229 59.5768 413.228 59.0098 413.228C58.3018 413.221 57.5937 413.214 56.8643 413.207C56.1562 413.207 55.4482 413.206 54.7188 413.206C53.4012 413.2 52.4128 413.195 51.6426 413.182C51.5559 413.18 51.472 413.177 51.3906 413.175C51.2265 413.175 51.0278 413.175 50.7393 413.175C49.4573 413.115 49.2574 413.103 48.2432 412.774C48.0443 412.712 47.829 412.641 47.5811 412.559C47.3787 412.546 47.1762 412.535 46.9736 412.526C46.568 412.508 46.1619 412.497 45.7559 412.491C45.5531 412.488 45.3502 412.487 45.1475 412.486L43.7148 412.483C43.2224 412.486 42.73 412.488 42.2227 412.49C41.7367 412.488 41.2507 412.486 40.75 412.483C40.038 412.484 40.0376 412.485 39.3115 412.486C38.6666 412.487 38.6658 412.487 38.0078 412.488C36.9208 412.524 36.6859 412.532 35.9121 412.677C35.6981 412.717 35.4429 412.767 35.1172 412.832C34.8695 412.871 34.6224 412.906 34.376 412.937C34.2467 412.953 34.1173 412.965 33.9883 412.979C32.382 413.159 30.7909 413.194 29.1592 413.196C28.5706 413.199 28.5703 413.199 27.9697 413.202C27.1456 413.205 26.3212 413.206 25.4971 413.206C24.2328 413.207 22.9683 413.217 21.7041 413.228C20.9014 413.229 20.0986 413.23 19.2959 413.23C18.7287 413.236 18.7282 413.236 18.1494 413.242C16.7286 413.235 16.0672 413.23 15.5732 413.043C15.4062 413.024 15.2391 413.004 15.0723 412.979C14.4466 412.886 13.8208 412.752 13.1787 412.559C13.0266 412.54 12.8739 412.524 12.7217 412.506C12.1838 412.522 11.6098 412.54 10.9941 412.559V412.318C10.7666 412.296 10.5392 412.272 10.3115 412.251C9.82441 412.205 9.33684 412.159 8.83496 412.112C8.46631 412.079 8.09759 412.047 7.71777 412.013V410.92C6.99695 410.74 6.27587 410.56 5.5332 410.374V409.282H4.44141V408.189H3.34863V407.098H2.25684V404.367H1.16504C1.11543 403.845 1.11507 403.845 1.06445 403.312C1.0187 402.86 0.972917 402.409 0.925781 401.944C0.881434 401.495 0.836707 401.044 0.791016 400.581C0.733292 399.46 0.733376 399.46 0.0722656 398.906C0.0188226 398.089 0.00131357 397.269 0.00390625 396.449C0.00249888 396.004 0.00144999 395.56 0 395.102C0.0725071 393.993 0.0725068 393.992 0.618164 393.446C0.6969 392.681 0.74276 391.911 0.772461 391.143C0.792875 390.679 0.812952 390.214 0.833984 389.736C0.86249 389.005 0.862518 389.004 0.891602 388.258C0.929055 387.297 0.968448 386.335 1.01074 385.374C1.03555 384.732 1.03621 384.732 1.06152 384.076C1.16497 383.07 1.16488 383.07 1.71094 382.524C1.84023 381.054 1.94085 379.595 2.01758 378.122C2.04116 377.708 2.06555 377.293 2.08984 376.866C2.14793 375.84 2.20245 374.814 2.25684 373.787H3.34863C3.3423 373.242 3.33661 372.696 3.33008 372.134C3.32515 371.429 3.31953 370.725 3.31445 369.999C3.30812 369.296 3.30242 368.593 3.2959 367.868C3.34923 366.142 3.34943 366.142 3.89551 365.596C3.89562 365.594 3.89539 365.593 3.89551 365.592C4.0442 363.691 4.13845 361.79 4.23438 359.886C4.26678 359.583 4.30639 359.288 4.35059 359C4.35406 358.965 4.3568 358.931 4.36035 358.898C4.40246 358.509 4.45076 358.253 4.51758 358.062C4.51928 358.057 4.52073 358.052 4.52246 358.047C4.68011 357.288 4.88157 356.557 5.12988 355.809C5.1389 355.699 5.14954 355.589 5.1582 355.479C5.20881 354.835 5.25335 354.192 5.29395 353.548C5.33969 352.843 5.38549 352.139 5.43262 351.413C5.4657 350.868 5.49912 350.322 5.5332 349.76H6.625C6.60248 349.185 6.58082 348.611 6.55762 348.02C6.5668 347.74 6.58103 347.476 6.59961 347.225C6.59672 346.811 6.59378 346.395 6.59082 345.972C6.58449 345.269 6.57879 344.565 6.57227 343.841C6.62559 342.115 6.6258 342.114 7.17188 341.568C7.28636 340.296 7.37235 339.021 7.44434 337.746C7.65668 333.985 7.65707 333.985 8.26367 333.378C8.37869 332.011 8.46924 330.652 8.53711 329.282C8.73632 325.261 8.73587 325.26 9.35547 324.641C9.4706 323.182 9.56114 321.732 9.62891 320.271C9.82813 315.977 9.82839 315.977 10.4482 315.357C10.5634 313.899 10.6529 312.449 10.7207 310.988C10.9199 306.694 10.9204 306.694 11.54 306.074C11.5687 305.808 11.5958 305.54 11.6211 305.273C11.6465 305.006 11.6699 304.738 11.6924 304.471C11.7373 303.936 11.7775 303.401 11.8135 302.865C11.8592 302.187 11.9049 301.559 11.9746 300.948C12.0908 299.93 12.2729 298.96 12.6318 297.883C12.6738 297.425 12.7123 296.967 12.748 296.51C12.8552 295.136 12.9385 293.762 13.0244 292.386C13.178 290.784 13.1785 290.784 13.7246 289.691C13.981 287.815 14.199 285.937 14.4072 284.055C14.6506 281.962 14.7261 281.307 14.9453 280.907C14.9852 280.834 15.0298 280.77 15.0811 280.707C15.1578 280.613 15.2496 280.521 15.3623 280.408C15.3944 280.087 15.4246 279.766 15.4531 279.445C15.5101 278.803 15.5603 278.16 15.6055 277.517C15.628 277.195 15.6496 276.873 15.6699 276.552C15.7157 275.847 15.7615 275.142 15.8086 274.416C15.8582 273.598 15.8586 273.598 15.9092 272.764H17.001V264.572H18.0928C18.0864 263.908 18.0807 263.244 18.0742 262.561C18.0691 261.695 18.0634 260.83 18.0586 259.965C18.054 259.527 18.0496 259.088 18.0449 258.637C18.0402 257.521 18.0642 256.405 18.0928 255.289L18.6387 254.743C18.768 253.273 18.8696 251.813 18.9463 250.34C18.9816 249.719 18.9815 249.719 19.0176 249.085C19.0757 248.059 19.1312 247.032 19.1855 246.006H20.2773C20.271 245.381 20.2643 244.757 20.2578 244.113C20.2527 243.299 20.248 242.485 20.2432 241.671C20.2386 241.259 20.2342 240.846 20.2295 240.422C20.2248 239.371 20.2488 238.319 20.2773 237.269L20.8232 236.723C20.9515 235.531 21.0496 234.335 21.1309 233.139C21.1995 232.158 21.1995 232.158 21.2695 231.157C21.3026 230.651 21.3351 230.145 21.3691 229.623H22.4619C22.4556 229.038 22.4489 228.453 22.4424 227.851C22.4373 227.088 22.4326 226.324 22.4277 225.562C22.4251 225.335 22.4233 225.197 22.4219 225.078C22.3514 224.393 22.3877 223.676 22.4277 222.798C22.4366 222.343 22.4488 221.888 22.4619 221.433C22.6421 221.252 22.8221 221.071 23.0078 220.886C23.1228 219.519 23.2124 218.161 23.2803 216.791C23.4795 212.769 23.4797 212.768 24.0996 212.148C24.2141 210.876 24.3011 209.601 24.373 208.326C24.5854 204.565 24.5856 204.565 25.1924 203.958C25.3069 202.686 25.3929 201.411 25.4648 200.136C25.5843 198.019 25.6367 197.093 25.7676 196.58V196.578C25.7578 196.49 25.7481 196.401 25.7383 196.312H25.8594C25.8626 196.305 25.8649 196.298 25.8682 196.291C25.9257 196.169 25.9955 196.073 26.083 195.975L26.2842 195.767C26.3608 194.413 26.4412 193.059 26.5234 191.705C26.5449 191.319 26.5658 190.933 26.5879 190.535C26.7681 187.638 26.7681 187.637 27.376 187.029C27.4049 186.693 27.4323 186.358 27.458 186.022C27.5352 185.016 27.5987 184.012 27.6494 183.002C27.7245 181.522 27.771 180.598 27.833 179.922C27.8488 179.749 27.8682 179.593 27.8867 179.448C27.8983 179.245 27.9114 179.041 27.9229 178.838H27.9854C27.9872 178.829 27.9884 178.82 27.9902 178.812C28.0071 178.732 28.0254 178.653 28.0449 178.574C28.1035 178.337 28.1742 178.099 28.2637 177.82C28.3089 177.68 28.3589 177.529 28.4141 177.363C28.4602 171.685 28.8145 169.841 30.0732 167.022C30.0836 166.973 30.0949 166.923 30.1045 166.873C30.3012 165.851 30.3531 164.831 30.4141 163.685C30.5985 160.326 30.5987 160.326 31.1992 159.726C31.2313 159.405 31.2616 159.084 31.29 158.763C31.347 158.12 31.3963 157.477 31.4414 156.834C31.464 156.512 31.4856 156.191 31.5059 155.869C31.5516 155.165 31.5974 154.459 31.6445 153.733C31.6941 152.916 31.6945 152.915 31.7451 152.081H32.8369V142.798H33.9287V134.606H35.0215C35.0152 134.022 35.0085 133.437 35.002 132.834C34.9968 132.071 34.9921 131.308 34.9873 130.545C34.9827 130.159 34.9783 129.773 34.9736 129.375C34.9689 128.388 34.993 127.401 35.0215 126.415L35.5674 125.869C35.6965 124.49 35.7981 123.122 35.875 121.739C35.9104 121.157 35.9102 121.157 35.9463 120.562C36.0044 119.601 36.0589 118.639 36.1133 117.678H37.2061C37.1997 117.014 37.1931 116.35 37.1865 115.666C37.1814 114.801 37.1767 113.936 37.1719 113.07C37.1673 112.632 37.1619 112.194 37.1572 111.742C37.1525 110.626 37.1775 109.51 37.2061 108.395L37.752 107.849C37.8672 106.299 37.9567 104.758 38.0244 103.207C38.2236 98.6397 38.2241 98.6392 38.8438 98.0195C38.9578 96.9297 39.045 95.8366 39.1172 94.7432C39.3295 91.5275 39.3289 91.5266 39.9355 90.9199C40.0508 89.5639 40.1412 88.2169 40.209 86.8584C40.4087 82.8758 40.4089 82.8755 41.0283 81.6367C41.1406 80.3643 41.2276 79.0897 41.3008 77.8145C41.407 75.9635 41.4601 75.0382 41.5625 74.4238C41.5642 74.4137 41.5657 74.4035 41.5674 74.3936C41.57 74.2601 41.5716 74.1263 41.5742 73.9922C41.5989 74.0004 41.6237 74.0084 41.6484 74.0166C41.6489 74.0149 41.6499 74.0134 41.6504 74.0117C41.7505 73.639 41.8927 73.3543 42.1201 72.8994C42.2048 71.8739 42.2778 70.8532 42.3379 69.8291C42.3398 69.7966 42.3409 69.764 42.3428 69.7314C42.3484 69.6273 42.3538 69.5231 42.3594 69.4189C42.3808 68.9853 42.4017 68.5512 42.4238 68.1045C42.437 67.8659 42.4523 67.645 42.4639 67.4395C42.4844 67.0565 42.5032 66.7267 42.5225 66.4395C42.6016 65.2466 42.6758 64.8075 42.8896 64.2979C42.9007 64.271 42.912 64.244 42.9238 64.2168C42.9498 64.157 42.978 64.0963 43.0078 64.0332L43.2129 63.6162C43.3371 62.5949 43.4361 61.5704 43.5195 60.5449C43.5882 59.7236 43.5882 59.7233 43.6582 58.8857C43.6913 58.4648 43.7247 58.0431 43.7588 57.6094H43.9404C44.0081 57.0292 44.0602 56.5735 44.1094 56.21C44.1686 55.7724 44.2205 55.4681 44.2803 55.2402C44.2913 55.1983 44.3029 55.1592 44.3145 55.1221C44.3758 54.8093 44.5003 54.6833 44.8506 54.333C44.9799 52.8629 45.0815 51.4036 45.1582 49.9307C45.1936 49.3093 45.1934 49.3087 45.2295 48.6748C45.2876 47.6487 45.3421 46.622 45.3965 45.5957H46.4893V35.7666H47.5811C47.5747 35.0634 47.5681 34.3602 47.5615 33.6357C47.5572 32.8594 47.553 32.083 47.5488 31.3066C47.4884 30.6239 47.4948 29.9 47.5127 29.0771C47.5176 28.7849 47.5224 28.4927 47.5273 28.1982C47.5273 28.1791 47.5274 28.1598 47.5273 28.1406C47.5245 27.7317 47.5225 27.3226 47.5195 26.9014C47.535 26.6606 47.5463 26.48 47.5635 26.3359C47.5654 26.3195 47.5682 26.3036 47.5703 26.2881C47.5736 26.1719 47.5777 26.0552 47.5811 25.9375H47.668C47.6816 25.9097 47.6939 25.8813 47.7109 25.8545C47.7942 25.7238 47.9224 25.5961 48.127 25.3916C48.2554 24.1084 48.3534 22.8212 48.4346 21.5342C48.5032 20.4777 48.5032 20.4775 48.5732 19.3994C48.6063 18.8539 48.6388 18.3082 48.6729 17.7461H49.7656C49.7086 17.1506 49.7086 17.1505 49.6504 16.543C49.4058 12.0003 50.2711 8.33115 53.042 4.64062C54.5202 3.91113 54.5203 3.91048 55.7725 3.54785V2.45605H57.9561V1.36426H61.2334V0.271484C68.0452 0.220768 74.857 0.181899 81.6689 0.158203C84.8324 0.146828 87.9958 0.132235 91.1592 0.107422C94.2148 0.0836054 97.2705 0.070099 100.326 0.0644531C101.489 0.0604321 102.652 0.0528485 103.815 0.0410156C105.45 0.0250508 107.085 0.0224298 108.72 0.0234375C109.195 0.0155852 109.671 0.00809019 110.161 0ZM102.734 98.0195H101.643V100.312C101.713 100.697 101.761 101.136 101.803 101.662C101.792 102.405 101.772 103.148 101.745 103.89C101.734 104.461 101.734 104.461 101.723 105.044C101.703 105.979 101.674 106.914 101.643 107.849H100.551C100.557 108.473 100.563 109.097 100.569 109.74C100.574 110.554 100.58 111.369 100.585 112.183C100.59 112.595 100.594 113.007 100.599 113.432C100.603 114.483 100.579 115.535 100.551 116.586C100.371 116.766 100.19 116.946 100.004 117.132C99.8481 119.11 99.7589 121.088 99.665 123.07C99.5968 123.633 99.5284 124.197 99.458 124.777C99.3979 124.807 99.3441 124.833 99.2959 124.857C99.2858 124.876 99.2775 124.895 99.2666 124.913C99.1779 125.057 99.0639 125.171 98.9121 125.323C98.8334 126.089 98.7885 126.858 98.7588 127.627C98.7384 128.091 98.7173 128.554 98.6963 129.032C98.6773 129.52 98.6583 130.008 98.6387 130.511C98.6012 131.472 98.5618 132.433 98.5195 133.395C98.503 133.823 98.4868 134.251 98.4697 134.692C98.3922 135.447 98.3728 135.636 98.1377 135.913C98.0984 135.959 98.0527 136.008 98 136.062C97.9477 136.117 97.8883 136.176 97.8203 136.244C97.6657 137.795 97.5747 139.347 97.4805 140.903C97.4122 141.348 97.3438 141.793 97.2734 142.251C97.2247 142.275 97.1757 142.299 97.127 142.323C97.1121 142.349 97.0986 142.376 97.082 142.4C96.9934 142.532 96.8793 142.646 96.7275 142.798C96.6125 144.165 96.5229 145.523 96.4551 146.893C96.3555 148.903 96.3055 149.909 96.2031 150.489C96.1967 150.525 96.1885 150.56 96.1816 150.593V150.988C96.1335 151.004 96.0853 151.02 96.0371 151.036C96.0237 151.063 96.0117 151.089 95.9971 151.113C95.9068 151.263 95.7906 151.379 95.6357 151.534C95.5205 152.89 95.43 154.237 95.3623 155.596C95.2375 158.086 95.1913 159.019 95.0225 159.672C95.018 159.689 95.0115 159.706 95.0068 159.723C94.9687 159.87 94.9184 160.007 94.8564 160.154C94.8289 160.22 94.8007 160.287 94.7686 160.356C94.7046 160.493 94.6312 160.643 94.5439 160.817C94.4565 162.207 94.3916 163.591 94.3389 164.981C94.1751 168.373 93.8292 171.676 93.2129 175.016C93.1461 175.391 93.0786 175.767 93.0098 176.154C92.8327 177.058 92.6011 177.95 92.3594 178.838C92.3167 178.859 92.2767 178.878 92.2402 178.896C92.2214 178.926 92.2033 178.955 92.1826 178.982C92.0865 179.111 91.9697 179.229 91.8135 179.385C91.6983 180.934 91.6077 182.475 91.54 184.026C91.4529 186.025 91.4037 187.149 91.3242 187.833C91.3193 187.875 91.3128 187.915 91.3076 187.954C91.2935 188.192 91.2809 188.43 91.2666 188.668C91.2036 188.699 91.1477 188.727 91.0977 188.752C91.092 188.763 91.0879 188.774 91.082 188.784C90.9918 188.943 90.8756 189.059 90.7207 189.214C90.6064 190.395 90.5203 191.579 90.4482 192.764C90.3952 193.636 90.3548 194.29 90.3154 194.79C90.2859 195.165 90.257 195.453 90.2227 195.682C90.2112 195.758 90.1993 195.828 90.1865 195.892C90.1333 196.353 90.0268 196.461 89.6289 196.858L89.5762 197.434C89.5289 198.009 89.4979 198.585 89.4756 199.162C89.4552 199.626 89.4341 200.09 89.4131 200.568C89.3941 201.056 89.375 201.544 89.3555 202.047C89.318 203.008 89.2786 203.97 89.2363 204.931C89.2198 205.359 89.2036 205.787 89.1865 206.229C89.1607 206.48 89.1412 206.668 89.1182 206.818C89.1097 206.873 89.0978 206.922 89.0879 206.968C89.0857 207.057 89.0853 207.146 89.083 207.234L88.5371 207.78C88.3825 209.332 88.2915 210.883 88.1973 212.439C88.129 212.884 88.0606 213.329 87.9902 213.787C87.9415 213.811 87.8925 213.835 87.8438 213.859C87.8289 213.886 87.8154 213.912 87.7988 213.937C87.7102 214.068 87.596 214.181 87.4443 214.333C87.3291 215.882 87.2395 217.423 87.1719 218.975C87.0723 221.258 87.0223 222.4 86.9199 223.049C86.9051 223.143 86.8875 223.226 86.8701 223.302C86.8049 223.708 86.6739 223.841 86.3525 224.162L86.2617 225.126C86.1763 226.089 86.1058 227.054 86.0449 228.02C85.9992 228.724 85.9534 229.428 85.9062 230.154C85.8566 230.973 85.8573 230.973 85.8066 231.808H84.7139V242.729H83.6221C83.6284 243.275 83.6351 243.82 83.6416 244.382C83.6465 245.086 83.6512 245.792 83.6562 246.518C83.6626 247.221 83.6693 247.924 83.6758 248.648C83.6491 249.511 83.6354 249.943 83.5605 250.227C83.5417 250.298 83.5189 250.36 83.4912 250.417C83.4637 250.474 83.4312 250.526 83.3926 250.577C83.315 250.681 83.2127 250.783 83.0762 250.92C82.9609 252.469 82.8704 254.01 82.8027 255.562C82.728 257.274 82.682 258.345 82.6201 259.047C82.6098 259.164 82.5983 259.271 82.5869 259.369C82.5188 259.956 82.4287 260.219 82.2725 260.433C82.1945 260.539 82.0995 260.634 81.9834 260.75C81.8688 261.919 81.7829 263.092 81.7109 264.265C81.4981 267.728 81.4977 267.728 80.8916 268.94C80.7781 270.478 80.6868 272.008 80.6182 273.548C80.5308 275.497 80.4818 276.594 80.4023 277.366C80.3962 277.426 80.3884 277.483 80.3818 277.539C80.3329 278.251 80.2759 278.434 79.7998 279.862C79.6766 281.169 79.5763 282.478 79.4922 283.787C79.4464 284.482 79.4007 285.177 79.3535 285.893C79.3204 286.425 79.287 286.958 79.2529 287.507H79.7998V288.6C80.5012 288.47 81.1343 288.287 81.7158 288.06C81.8077 287.891 81.8849 287.764 81.9717 287.66C82.1781 287.413 82.4282 287.292 82.999 287.017C83.248 286.889 83.4738 286.758 83.6826 286.624C84.5761 286.043 85.1288 285.385 85.875 284.436C86.6981 283.391 86.698 283.39 87.4443 282.593H88.5371C88.6216 282.12 88.6209 282.119 88.707 281.637C88.907 280.982 89.1404 280.443 89.4297 279.942C89.6824 279.4 90.0923 278.925 90.7207 278.224H91.8135V276.586H92.9053V275.493H93.9971V274.401H95.0898C95.4502 273.5 95.8103 272.599 96.1816 271.671H97.2734V270.579H98.3662C98.5007 270.271 98.6349 269.962 98.7734 269.645C98.9739 269.279 99.1847 268.936 99.4062 268.609C100.071 267.629 100.829 266.789 101.677 265.869C103.203 264.251 103.203 264.251 104.373 262.388H105.465V261.296H106.558C106.918 260.395 107.278 259.494 107.649 258.565H108.741V257.474H109.834C110.194 256.573 110.554 255.671 110.926 254.743H112.018V253.65H113.11C113.25 253.332 113.389 253.014 113.532 252.687C113.653 252.467 113.778 252.261 113.904 252.063C114.529 251.068 115.226 250.299 116.113 249.419C116.445 249.084 116.778 248.748 117.12 248.403C117.396 248.171 117.59 248.012 117.754 247.9C117.843 247.815 117.934 247.73 118.024 247.644C118.069 247.666 118.111 247.686 118.148 247.705C118.374 247.643 118.643 247.644 119.117 247.644V245.46H120.209V244.367H121.301V243.275H122.394V241.637H123.485V240.545H124.578V239.453H125.67C126.03 238.552 126.39 237.651 126.762 236.723H127.854V235.63H128.946C129.081 235.322 129.215 235.014 129.354 234.696C130.155 233.233 131.127 232.146 132.257 230.92C133.783 229.302 133.784 229.302 134.953 227.439H136.045V226.347H137.138V225.255H138.229V223.616H139.321V222.524H140.414V221.433H141.506C141.866 220.532 142.226 219.63 142.598 218.702H143.69V217.609H144.782C144.968 217.153 144.969 217.154 145.158 216.688C145.751 215.645 146.48 214.819 147.276 214.012C147.347 213.784 147.426 213.53 147.513 213.241C147.875 213.06 148.238 212.878 148.604 212.695C149.311 211.512 149.312 211.512 149.697 210.511H150.789V209.419H151.882V208.326H152.974C153.116 207.971 153.257 207.616 153.399 207.259C153.573 206.704 153.782 206.162 154.065 205.596H155.158V204.504H156.25C156.408 204.177 156.565 203.85 156.728 203.514C157.342 202.319 157.343 202.32 158.435 200.682H159.526V199.589H160.618L160.994 198.668C161.916 197.044 163.058 195.92 164.441 194.675H165.533C165.612 194.201 165.613 194.2 165.693 193.717C165.873 193.147 166.083 192.684 166.334 192.266C166.589 191.701 166.82 191.395 167.157 191.149C167.378 190.892 167.622 190.628 167.889 190.34C169.04 189.078 170.12 187.839 171.165 186.483C171.469 186.123 171.773 185.763 172.086 185.392H173.179C173.336 185.076 173.494 184.76 173.656 184.436C174.271 183.207 174.27 183.206 174.885 182.183C175.594 180.46 175.72 179.608 175.362 177.746C174.417 176.606 173.378 175.634 172.291 174.628C169.712 172.142 166.679 169.17 165.533 165.732H164.441V164.095H163.349V163.002H162.257V161.91H161.165C160.399 161.012 160.399 161.012 159.561 159.828C158.741 158.678 157.98 157.63 156.965 156.647C156.25 155.903 156.25 155.903 156.25 154.812H155.158V153.173H154.065V152.081H152.974V150.988H151.882C151.521 150.087 151.16 149.186 150.789 148.258H149.697V147.166H148.604C148.04 146.267 147.498 145.354 146.967 144.436C146.078 143.25 145.174 142.165 144.165 141.113C144.032 141.124 143.876 141.139 143.69 141.159C143.541 140.836 143.392 140.513 143.238 140.18C143.234 140.171 143.229 140.163 143.225 140.155C141.633 138.527 140.13 136.841 138.639 135.118C138.195 134.617 138.195 134.617 137.743 134.106C137.462 133.781 137.18 133.455 136.89 133.119C136.635 132.828 136.381 132.537 136.119 132.236C135.51 131.346 135.249 130.569 135.04 129.582L134.953 129.146H133.861V128.054H132.769V126.961H131.677C130.87 126.068 130.102 125.14 129.355 124.196C127.876 122.342 126.391 120.511 124.816 118.736C123.652 117.333 123.506 117.157 123.488 116.403L123.485 116.04H122.394V114.947H121.301V113.31H120.209V112.217H119.117C118.568 111.319 118.028 110.416 117.492 109.51C116.5 108.998 116.395 108.939 115.893 107.901L115.294 107.303V106.21H114.202C113.467 105.354 112.768 104.499 112.084 103.618C111.934 103.425 111.786 103.231 111.638 103.035C111.464 102.886 111.283 102.713 111.088 102.51C110.809 102.121 110.53 101.731 110.243 101.33C109.959 100.942 109.675 100.554 109.382 100.154C108.742 99.1113 108.741 99.1114 108.741 98.0195H107.649V96.9268H106.558V95.835C105.296 95.6548 104.034 95.4747 102.734 95.2891V98.0195Z" fill="#004E54"/>
</svg>
